<svg width="32" height="32" viewBox="0 0 32 32" fill="none" xmlns="http://www.w3.org/2000/svg">
<g id="facebook">
<path id="Facebook" d="M29 16.0791C28.9947 13.5959 28.2784 11.1662 26.9357 9.0773C25.593 6.98843 23.6801 5.32781 21.4233 4.29188C19.1665 3.25594 16.6602 2.88804 14.2009 3.23169C11.7416 3.57534 9.4322 4.61617 7.54581 6.23104C5.65943 7.84592 4.27503 9.96729 3.55635 12.3442C2.83768 14.7211 2.8148 17.2542 3.49044 19.6437C4.16607 22.0332 5.51195 24.1792 7.36886 25.8279C9.22577 27.4766 11.516 28.5589 13.9687 28.9469V19.8445H10.668V16.0791H13.9688V13.2093C13.9688 9.94465 15.9096 8.14136 18.879 8.14136C19.854 8.15495 20.8266 8.23998 21.789 8.39577V11.6014H20.1498C19.8701 11.5646 19.5858 11.5912 19.3179 11.6791C19.0499 11.767 18.8051 11.9141 18.6017 12.1095C18.3983 12.3048 18.2414 12.5434 18.1426 12.8076C18.0439 13.0717 18.0058 13.3547 18.0312 13.6356V16.0791H21.6367L21.0603 19.8445H18.0312V28.9469C21.0918 28.4584 23.8777 26.8942 25.8883 24.5355C27.8988 22.1769 29.0022 19.1784 29 16.0791Z" fill="#AAAAAA"/>
</g>
</svg>
