<svg width="26" height="26" viewBox="0 0 26 26" fill="none" xmlns="http://www.w3.org/2000/svg">
<g id="naver-blog-mark" clip-path="url(#clip0_47_217)">
<g id="svgg">
<path id="path0" fill-rule="evenodd" clip-rule="evenodd" d="M2.7916 0.94621C2.72862 0.951223 2.67701 0.965675 2.67701 0.978175C2.67701 0.99074 2.63359 1.00103 2.58055 1.00103C2.52751 1.00103 2.48409 1.01066 2.48409 1.02244C2.48409 1.04191 2.27992 1.08748 2.23689 1.07765C2.22695 1.07537 2.21876 1.08436 2.21876 1.09764C2.21876 1.11092 2.19165 1.12179 2.1585 1.12179C2.12529 1.12179 2.09818 1.13266 2.09818 1.14601C2.09818 1.15929 2.07647 1.17016 2.04995 1.17016C2.02343 1.17016 2.00172 1.17895 2.00172 1.18976C2.00172 1.20056 1.9637 1.22433 1.91729 1.24262C1.87088 1.26085 1.83285 1.28344 1.83285 1.29275C1.83285 1.30206 1.79723 1.31638 1.75368 1.32458C1.71013 1.33272 1.65891 1.36117 1.63987 1.38767C1.62076 1.41416 1.58826 1.43584 1.56759 1.43584C1.54692 1.43584 1.51435 1.45759 1.49524 1.48415C1.47607 1.51071 1.44656 1.53245 1.42959 1.53245C1.41263 1.53245 1.39872 1.54124 1.39872 1.55198C1.39872 1.56272 1.35803 1.58948 1.30824 1.61149C1.25845 1.63349 1.20144 1.67529 1.18162 1.70445C1.16173 1.73355 1.11941 1.78016 1.0875 1.80796C0.979011 1.90275 0.868122 2.0172 0.868057 2.03452C0.867992 2.04409 0.835167 2.07358 0.795126 2.10014C0.755022 2.1267 0.704127 2.18926 0.682027 2.23907C0.659862 2.28887 0.633017 2.32962 0.622292 2.32962C0.611567 2.32962 0.602792 2.34356 0.602792 2.36055C0.602792 2.37754 0.581082 2.4071 0.554562 2.4263C0.528042 2.44544 0.506332 2.47806 0.506332 2.49876C0.506332 2.51946 0.484687 2.55201 0.458232 2.57115C0.431777 2.59023 0.403372 2.64153 0.395247 2.68515C0.387057 2.72876 0.370742 2.76444 0.358977 2.76444C0.347147 2.76444 0.337527 2.78618 0.337527 2.81275C0.337527 2.83937 0.326672 2.86112 0.313412 2.86112C0.300152 2.86112 0.289297 2.87739 0.289297 2.89731C0.289297 2.91723 0.278442 2.93357 0.265182 2.93357C0.251922 2.93357 0.241067 2.95532 0.241067 2.98188C0.241067 3.00844 0.231447 3.03019 0.219682 3.03019C0.198752 3.03019 0.170997 3.13357 0.163067 3.24157C0.160857 3.27145 0.150327 3.29593 0.139732 3.29593C0.129137 3.29593 0.120427 3.32308 0.120427 3.35628C0.120427 3.38948 0.109572 3.4167 0.0963116 3.4167C0.0830516 3.4167 0.0721966 3.45927 0.0721966 3.51129C0.0721966 3.56552 0.0593266 3.61024 0.0420366 3.61597C-0.00229344 3.63082 -0.00229344 16.5612 0.0420366 16.576C0.0586116 16.5815 0.0721966 16.6177 0.0721966 16.6565C0.0721966 16.6953 0.0830516 16.727 0.0963116 16.727C0.109572 16.727 0.120427 16.765 0.120427 16.8115C0.120427 16.858 0.130697 16.896 0.143177 16.896C0.155657 16.896 0.161767 16.9175 0.156697 16.9438C0.151692 16.9701 0.157737 16.9979 0.170152 17.0057C0.182632 17.0133 0.192772 17.0408 0.192772 17.0665C0.192772 17.0923 0.203627 17.1135 0.216952 17.1135C0.230212 17.1135 0.241067 17.1352 0.241067 17.1618C0.241067 17.1883 0.251922 17.2101 0.265182 17.2101C0.278442 17.2101 0.289297 17.2264 0.289297 17.2463C0.289297 17.2662 0.300152 17.2825 0.313412 17.2825C0.326672 17.2825 0.337527 17.3043 0.337527 17.3309C0.337527 17.3574 0.347147 17.3792 0.358977 17.3792C0.370742 17.3792 0.387512 17.4172 0.396222 17.4637C0.404932 17.5102 0.422417 17.5483 0.435092 17.5483C0.447767 17.5483 0.458102 17.5676 0.458102 17.5913C0.458102 17.6149 0.479812 17.6499 0.506332 17.6691C0.532852 17.6882 0.554562 17.7128 0.554562 17.7237C0.554562 17.7347 0.581732 17.773 0.614882 17.8088C0.648032 17.8446 0.675202 17.8858 0.675202 17.9004C0.675202 17.9151 0.729217 17.9761 0.795257 18.0361C0.861297 18.0961 0.908292 18.1522 0.899777 18.1608C0.891197 18.1693 0.896852 18.1763 0.912322 18.1763C0.927792 18.1763 0.940467 18.1919 0.940467 18.211C0.940467 18.23 0.961657 18.2523 0.987462 18.2605C1.0366 18.2761 1.20001 18.4179 1.16888 18.4179C1.15906 18.4179 1.18773 18.4503 1.23264 18.49C1.27756 18.5296 1.33261 18.5623 1.35491 18.5624C1.3772 18.5626 1.40236 18.5846 1.41081 18.6111C1.41919 18.6377 1.44311 18.6594 1.46385 18.6594C1.48465 18.6594 1.51916 18.6798 1.54068 18.7046C1.56213 18.7293 1.61283 18.7569 1.65332 18.7658C1.69388 18.7747 1.74237 18.8034 1.76116 18.8294C1.77994 18.8555 1.81459 18.8769 1.83818 18.8769C1.86178 18.8769 1.88121 18.885 1.88128 18.895C1.88154 18.9195 2.00088 18.9735 2.05476 18.9735C2.07862 18.9735 2.09818 18.9837 2.09818 18.9962C2.09818 19.0087 2.147 19.0262 2.20673 19.0352C2.2664 19.0441 2.31528 19.0611 2.31528 19.0728C2.31528 19.0846 2.34174 19.0943 2.37411 19.0943C2.40648 19.0943 2.43969 19.1051 2.44788 19.1184C2.45607 19.1317 2.50014 19.1426 2.54577 19.1426C2.59147 19.1426 2.62878 19.1534 2.62878 19.1667C2.62878 19.1801 2.6668 19.1909 2.71321 19.1909C2.75962 19.1909 2.79765 19.2017 2.79765 19.2151C2.79765 19.229 2.8735 19.2392 2.97711 19.2392C3.07578 19.2392 3.16327 19.2501 3.17146 19.2634C3.18128 19.2793 4.36896 19.2876 6.65605 19.2876C10.2403 19.2876 10.2021 19.2867 10.2021 19.3626C10.2021 19.3877 10.2129 19.4083 10.2262 19.4083C10.2394 19.4083 10.2503 19.4355 10.2503 19.4687C10.2503 19.5019 10.2611 19.5291 10.2745 19.5291C10.2877 19.5291 10.2986 19.5508 10.2986 19.5774C10.2986 19.604 10.309 19.6258 10.3219 19.6258C10.3348 19.6258 10.3395 19.6409 10.3323 19.6595C10.3252 19.6781 10.331 19.7005 10.3451 19.7093C10.3593 19.718 10.3709 19.7517 10.3709 19.7841C10.3709 19.8166 10.3818 19.8431 10.395 19.8431C10.4083 19.8431 10.4192 19.8649 10.4192 19.8914C10.4192 19.918 10.43 19.9397 10.4433 19.9397C10.4565 19.9397 10.4674 19.9615 10.4674 19.988C10.4674 20.0147 10.4782 20.0364 10.4915 20.0364C10.5048 20.0364 10.5156 20.0636 10.5156 20.0968C10.5156 20.13 10.5252 20.1572 10.5371 20.1572C10.5488 20.1572 10.5656 20.1952 10.5743 20.2417C10.583 20.2882 10.6005 20.3263 10.6132 20.3263C10.6259 20.3263 10.6362 20.3589 10.6362 20.3987C10.6362 20.4386 10.647 20.4712 10.6603 20.4712C10.6736 20.4712 10.6844 20.4929 10.6844 20.5195C10.6844 20.5461 10.6953 20.5678 10.7086 20.5678C10.7219 20.5678 10.7327 20.595 10.7327 20.6282C10.7327 20.6615 10.7436 20.6886 10.7568 20.6886C10.7701 20.6886 10.7809 20.7104 10.7809 20.7369C10.7809 20.7635 10.7909 20.7852 10.8031 20.7852C10.8153 20.7852 10.8323 20.8206 10.8407 20.8637C10.8578 20.9505 10.9514 21.1551 10.9799 21.1677C10.9899 21.1721 10.998 21.2075 10.998 21.2462C10.998 21.285 11.0088 21.3167 11.0221 21.3167C11.0354 21.3167 11.0462 21.333 11.0462 21.3529C11.0462 21.3728 11.0564 21.3892 11.0689 21.3892C11.0813 21.3892 11.0989 21.4381 11.1078 21.4978C11.1167 21.5577 11.1337 21.6065 11.1455 21.6065C11.1572 21.6065 11.1669 21.6283 11.1669 21.6549C11.1669 21.6815 11.1777 21.7032 11.191 21.7032C11.2042 21.7032 11.2151 21.7249 11.2151 21.7515C11.2151 21.7781 11.2259 21.7998 11.2392 21.7998C11.2525 21.7998 11.2633 21.827 11.2633 21.8602C11.2633 21.8934 11.2718 21.9206 11.2823 21.9206C11.2928 21.9206 11.3226 21.9912 11.3487 22.0776C11.3747 22.1639 11.4041 22.2346 11.414 22.2346C11.424 22.2346 11.4321 22.2564 11.4321 22.283C11.4321 22.3095 11.443 22.3313 11.4562 22.3313C11.4695 22.3313 11.4803 22.3584 11.4803 22.3917C11.4803 22.4249 11.4912 22.452 11.5045 22.452C11.5178 22.452 11.5286 22.4738 11.5286 22.5003C11.5286 22.527 11.5394 22.5486 11.5528 22.5486C11.566 22.5486 11.5769 22.5686 11.5769 22.593C11.5769 22.6173 11.585 22.6454 11.5949 22.6553C11.6049 22.6653 11.6142 22.6807 11.6157 22.6896C11.631 22.7819 11.6592 22.8627 11.6763 22.8627C11.688 22.8627 11.6974 22.879 11.6974 22.8989C11.6974 22.9189 11.7083 22.9351 11.7216 22.9351C11.7348 22.9351 11.7457 22.9678 11.7457 23.0077C11.7457 23.0475 11.7565 23.0801 11.7698 23.0801C11.7831 23.0801 11.7939 23.0964 11.7939 23.1163C11.7939 23.1362 11.8036 23.1526 11.8154 23.1526C11.8271 23.1526 11.8441 23.1933 11.853 23.2431C11.8726 23.3523 11.9194 23.4666 11.9445 23.4666C11.9545 23.4666 11.9628 23.4993 11.9628 23.5391C11.9628 23.5789 11.9736 23.6116 11.9869 23.6116C12.0002 23.6116 12.011 23.6278 12.011 23.6478C12.011 23.6677 12.0219 23.684 12.0351 23.684C12.0484 23.684 12.0592 23.7058 12.0592 23.7323C12.0592 23.7589 12.0689 23.7806 12.0806 23.7806C12.0924 23.7806 12.1093 23.8296 12.1183 23.8893C12.1272 23.9492 12.1447 23.9981 12.1572 23.9981C12.1696 23.9981 12.1798 24.0198 12.1798 24.0464C12.1798 24.0729 12.1907 24.0947 12.2039 24.0947C12.2172 24.0947 12.228 24.1219 12.228 24.1551C12.228 24.1883 12.2389 24.2154 12.2522 24.2154C12.2654 24.2154 12.2763 24.2372 12.2763 24.2638C12.2763 24.2904 12.2871 24.3121 12.3004 24.3121C12.3136 24.3121 12.3245 24.3339 12.3245 24.3604C12.3245 24.387 12.3341 24.4087 12.3459 24.4087C12.3577 24.4087 12.3746 24.4576 12.3836 24.5174C12.3925 24.5772 12.41 24.6261 12.4225 24.6261C12.4349 24.6261 12.4451 24.6424 12.4451 24.6624C12.4451 24.6823 12.456 24.6986 12.4693 24.6986C12.4825 24.6986 12.4934 24.7204 12.4934 24.7469C12.4934 24.7735 12.5042 24.7952 12.5175 24.7952C12.5307 24.7952 12.5416 24.8124 12.5416 24.8334C12.5416 24.8543 12.5873 24.9168 12.6432 24.9722L12.7449 25.073L13.0129 25.0816C13.2344 25.0886 13.2876 25.0833 13.3195 25.0513C13.3408 25.0301 13.3698 25.0126 13.384 25.0126C13.3982 25.0126 13.4099 25.0007 13.4099 24.9861C13.4099 24.9715 13.4424 24.9291 13.4822 24.8918C13.522 24.8546 13.5546 24.8077 13.5546 24.7876C13.5546 24.7674 13.5661 24.7471 13.5802 24.7424C13.5944 24.7376 13.6121 24.6878 13.6196 24.6316C13.6272 24.5755 13.6427 24.5295 13.6542 24.5295C13.6658 24.5295 13.6752 24.5077 13.6752 24.4812C13.6752 24.4546 13.6861 24.4329 13.6993 24.4329C13.7126 24.4329 13.7234 24.4165 13.7234 24.3966C13.7234 24.3767 13.7343 24.3604 13.7475 24.3604C13.7608 24.3604 13.7717 24.3278 13.7717 24.288C13.7717 24.2481 13.7799 24.2154 13.7901 24.2154C13.8152 24.2154 13.8922 24.0333 13.8922 23.9737C13.8922 23.9473 13.9031 23.9256 13.9164 23.9256C13.9296 23.9256 13.9405 23.9039 13.9405 23.8773C13.9405 23.8507 13.9513 23.829 13.9646 23.829C13.9778 23.829 13.9887 23.7964 13.9887 23.7565C13.9887 23.7166 13.9996 23.684 14.0128 23.684C14.0261 23.684 14.0369 23.6677 14.0369 23.6478C14.0369 23.6278 14.0478 23.6116 14.0611 23.6116C14.0744 23.6116 14.0852 23.5905 14.0852 23.5647C14.0852 23.5389 14.0951 23.5116 14.1072 23.5041C14.1193 23.4966 14.1366 23.4471 14.1455 23.394C14.1544 23.3409 14.1717 23.2975 14.1838 23.2975C14.1959 23.2975 14.2058 23.2758 14.2058 23.2492C14.2058 23.2226 14.2167 23.2009 14.2299 23.2009C14.2432 23.2009 14.254 23.1737 14.254 23.1405C14.254 23.1073 14.2649 23.0801 14.2781 23.0801C14.2914 23.0801 14.3023 23.0584 14.3023 23.0318C14.3023 23.0052 14.3131 22.9835 14.3264 22.9835C14.3396 22.9835 14.3505 22.9624 14.3505 22.9366C14.3505 22.9108 14.3604 22.8836 14.3725 22.8761C14.3846 22.8686 14.4018 22.819 14.4108 22.7659C14.4198 22.7129 14.4343 22.6693 14.443 22.6693C14.4659 22.669 14.5194 22.5472 14.5194 22.4955C14.5194 22.4716 14.5275 22.452 14.5374 22.4518C14.5619 22.4516 14.6158 22.3321 14.6158 22.2781C14.6158 22.2542 14.6254 22.2346 14.6373 22.2346C14.649 22.2346 14.6658 22.1966 14.6745 22.1501C14.6832 22.1036 14.7007 22.0655 14.7134 22.0655C14.7261 22.0655 14.7364 22.0329 14.7364 21.9931C14.7364 21.9532 14.7472 21.9206 14.7605 21.9206C14.7738 21.9206 14.7846 21.9043 14.7846 21.8843C14.7846 21.8644 14.7955 21.8481 14.8087 21.8481C14.822 21.8481 14.8329 21.827 14.8329 21.8013C14.8329 21.7754 14.8423 21.7485 14.8538 21.7414C14.8654 21.7343 14.8817 21.6847 14.8903 21.6313C14.8988 21.5778 14.9165 21.5341 14.9296 21.5341C14.9428 21.5341 14.9535 21.5123 14.9535 21.4858C14.9535 21.4592 14.9643 21.4375 14.9776 21.4375C14.9909 21.4375 15.0017 21.4103 15.0017 21.3771C15.0017 21.3439 15.0126 21.3167 15.0258 21.3167C15.0391 21.3167 15.05 21.295 15.05 21.2683C15.05 21.2418 15.0608 21.22 15.0741 21.22C15.0873 21.22 15.0982 21.1983 15.0982 21.1717C15.0982 21.1452 15.1078 21.1234 15.1196 21.1234C15.1313 21.1234 15.1483 21.0745 15.1572 21.0147C15.1662 20.9549 15.1837 20.906 15.1961 20.906C15.2086 20.906 15.2188 20.8788 15.2188 20.8456C15.2188 20.8124 15.2296 20.7852 15.2429 20.7852C15.2561 20.7852 15.267 20.7635 15.267 20.7369C15.267 20.7104 15.2778 20.6886 15.2911 20.6886C15.3044 20.6886 15.3153 20.6669 15.3153 20.6403C15.3153 20.6137 15.3261 20.592 15.3394 20.592C15.3527 20.592 15.3635 20.5648 15.3635 20.5316C15.3635 20.4984 15.3744 20.4712 15.3876 20.4712C15.4009 20.4712 15.4118 20.4522 15.4119 20.4289C15.4119 20.4057 15.4283 20.3555 15.4481 20.3175C15.4678 20.2794 15.4841 20.2287 15.4841 20.2047C15.4841 20.1808 15.4922 20.1576 15.5022 20.1531C15.5323 20.1397 15.6288 19.9384 15.6288 19.8892C15.6288 19.8638 15.6392 19.8431 15.6519 19.8431C15.6645 19.8431 15.6819 19.8051 15.6907 19.7586C15.6994 19.7121 15.7161 19.6741 15.728 19.6741C15.7397 19.6741 15.7494 19.6469 15.7494 19.6136C15.7494 19.5804 15.7603 19.5532 15.7735 19.5532C15.7868 19.5532 15.7976 19.5315 15.7976 19.5049C15.7976 19.4784 15.8085 19.4566 15.8218 19.4566C15.835 19.4566 15.8459 19.4252 15.8459 19.3868C15.8459 19.2827 15.6764 19.2876 19.3557 19.2876C21.6187 19.2876 22.7943 19.2793 22.8041 19.2634C22.8123 19.2501 22.8943 19.2392 22.9865 19.2392C23.0819 19.2392 23.1538 19.2288 23.1538 19.2151C23.1538 19.2017 23.2027 19.1909 23.2624 19.1909C23.322 19.1909 23.3709 19.1801 23.3709 19.1667C23.3709 19.1534 23.4082 19.1426 23.4539 19.1426C23.4996 19.1426 23.5436 19.1317 23.5518 19.1184C23.56 19.1051 23.5932 19.0943 23.6256 19.0943C23.658 19.0943 23.6844 19.0846 23.6844 19.0728C23.6844 19.0611 23.7333 19.0441 23.793 19.0352C23.8527 19.0262 23.9015 19.0087 23.9015 18.9962C23.9015 18.9837 23.9232 18.9735 23.9497 18.9735C23.9763 18.9735 23.998 18.9626 23.998 18.9493C23.998 18.9361 24.0227 18.9252 24.053 18.9252C24.0832 18.9252 24.1236 18.9035 24.1427 18.8769C24.1618 18.8503 24.1968 18.8286 24.2204 18.8286C24.244 18.8286 24.2633 18.8186 24.2633 18.8063C24.2633 18.7941 24.2944 18.7772 24.3324 18.7689C24.3704 18.7606 24.4242 18.7325 24.452 18.7066C24.4798 18.6807 24.5132 18.6594 24.5262 18.6594C24.5393 18.6594 24.5642 18.6393 24.5815 18.6147C24.5988 18.5902 24.651 18.5506 24.6974 18.5268C24.7439 18.5031 24.7981 18.4624 24.818 18.4363C24.8379 18.4103 24.8789 18.3656 24.909 18.337C24.9391 18.3084 24.9987 18.2494 25.0416 18.2057C25.0845 18.1621 25.1656 18.0812 25.222 18.026C25.2784 17.9708 25.3245 17.9114 25.3245 17.894C25.3245 17.8765 25.3346 17.8623 25.347 17.8623C25.3594 17.8623 25.3772 17.8379 25.3866 17.8079C25.3961 17.778 25.424 17.736 25.4486 17.7145C25.4732 17.693 25.4934 17.6601 25.4934 17.6413C25.4934 17.6226 25.515 17.5916 25.5415 17.5725C25.5679 17.5534 25.5963 17.5021 25.6045 17.4585C25.6126 17.4148 25.629 17.3792 25.6407 17.3792C25.6526 17.3792 25.6622 17.3574 25.6622 17.3309C25.6622 17.3043 25.673 17.2825 25.6863 17.2825C25.6995 17.2825 25.7104 17.2662 25.7104 17.2463C25.7104 17.2264 25.7213 17.2101 25.7345 17.2101C25.7478 17.2101 25.7586 17.1883 25.7586 17.1618C25.7586 17.1352 25.7695 17.1135 25.7827 17.1135C25.7961 17.1135 25.8069 17.0869 25.8069 17.0545C25.8069 17.0221 25.8167 16.9895 25.8288 16.982C25.8408 16.9745 25.8581 16.9141 25.8672 16.8477C25.8763 16.7813 25.8936 16.7209 25.9057 16.7135C25.9176 16.706 25.9275 16.6634 25.9275 16.6188C25.9275 16.5742 25.9411 16.5332 25.9577 16.5276C25.9817 16.5196 25.9878 15.207 25.9878 10.0718C25.9878 4.93669 25.9817 3.62398 25.9577 3.61597C25.9404 3.61024 25.9275 3.56552 25.9275 3.51129C25.9275 3.45927 25.918 3.4167 25.9064 3.4167C25.8949 3.4167 25.8782 3.37047 25.8693 3.31403C25.8511 3.19795 25.8042 3.07849 25.7769 3.07849C25.7669 3.07849 25.7586 3.04588 25.7586 3.00603C25.7586 2.96619 25.7478 2.93357 25.7345 2.93357C25.7213 2.93357 25.7104 2.91723 25.7104 2.89731C25.7104 2.87739 25.6995 2.86112 25.6863 2.86112C25.673 2.86112 25.6622 2.83937 25.6622 2.81275C25.6622 2.78618 25.6526 2.76444 25.6407 2.76444C25.629 2.76444 25.6126 2.72876 25.6045 2.68515C25.5963 2.64153 25.5679 2.59023 25.5415 2.57115C25.515 2.55201 25.4934 2.51946 25.4934 2.49876C25.4934 2.47806 25.4717 2.44544 25.4451 2.4263C25.4186 2.4071 25.3969 2.37806 25.3969 2.36165C25.3969 2.34525 25.3697 2.30469 25.3366 2.27142C25.3034 2.23822 25.2763 2.20242 25.2763 2.19187C25.2763 2.18126 25.2445 2.14005 25.2055 2.10014C24.9946 1.88433 24.904 1.7982 24.8877 1.7982C24.8777 1.7982 24.8632 1.77821 24.8555 1.75373C24.8477 1.72932 24.8117 1.69397 24.7754 1.67522C24.7392 1.65654 24.6963 1.6303 24.6802 1.61702C24.664 1.60374 24.6347 1.57926 24.6149 1.56266C24.5951 1.54606 24.57 1.53245 24.5591 1.53245C24.5481 1.53245 24.5236 1.51071 24.5045 1.48415C24.4853 1.45759 24.4528 1.43584 24.4321 1.43584C24.4114 1.43584 24.3789 1.41416 24.3598 1.38767C24.3408 1.36117 24.2896 1.33272 24.246 1.32458C24.2025 1.31638 24.1668 1.30004 24.1668 1.28826C24.1668 1.27641 24.1505 1.26677 24.1306 1.26677C24.1108 1.26677 24.0944 1.2559 24.0944 1.24262C24.0944 1.22934 24.0728 1.21847 24.0462 1.21847C24.0197 1.21847 23.998 1.20759 23.998 1.19431C23.998 1.18103 23.9763 1.17016 23.9497 1.17016C23.9232 1.17016 23.9015 1.15929 23.9015 1.14601C23.9015 1.13266 23.8762 1.12179 23.8452 1.12179C23.8143 1.12179 23.7808 1.11365 23.7709 1.10369C23.7609 1.09373 23.7455 1.08455 23.7367 1.08325C23.6061 1.06404 23.5156 1.03905 23.5156 1.02212C23.5156 1.01053 23.4731 1.00103 23.4212 1.00103C23.367 1.00103 23.3224 0.988136 23.3167 0.970818C23.3072 0.942499 3.1402 0.918281 2.7916 0.94621ZM8.87554 6.31549C8.87554 6.32877 8.93462 6.33964 9.00677 6.33964C9.07892 6.33964 9.1447 6.35051 9.15289 6.36379C9.16108 6.37707 9.21061 6.38794 9.26287 6.38794C9.31513 6.38794 9.3579 6.39882 9.3579 6.4121C9.3579 6.42538 9.38774 6.43632 9.42427 6.43638C9.46073 6.43651 9.52164 6.45279 9.55966 6.47264C9.59769 6.4925 9.64923 6.50871 9.67419 6.50871C9.69922 6.50871 9.71969 6.51958 9.71969 6.53286C9.71969 6.54614 9.7414 6.55701 9.76792 6.55701C9.79444 6.55701 9.81615 6.56789 9.81615 6.58117C9.81615 6.59451 9.83247 6.60538 9.85236 6.60538C9.87225 6.60538 9.88856 6.61456 9.88856 6.62583C9.88856 6.63709 9.93192 6.66593 9.98502 6.68989C10.0381 6.71384 10.0815 6.74268 10.0815 6.75395C10.0815 6.76521 10.0928 6.77445 10.1066 6.77445C10.1393 6.77445 10.3709 7.01025 10.3709 7.04352C10.3709 7.05758 10.4035 7.09957 10.4433 7.13681C10.4831 7.17405 10.5156 7.21402 10.5156 7.22568C10.5156 7.23739 10.5364 7.26187 10.5618 7.28023C10.5871 7.29852 10.604 7.33355 10.5993 7.35803C10.5946 7.38251 10.601 7.40249 10.6135 7.40249C10.626 7.40249 10.6362 7.41883 10.6362 7.43875C10.6362 7.45867 10.647 7.47502 10.6603 7.47502C10.6736 7.47502 10.6844 7.50763 10.6844 7.54747C10.6844 7.58732 10.6953 7.61993 10.7086 7.61993C10.7219 7.61993 10.7327 7.64708 10.7327 7.68035C10.7327 7.71355 10.7436 7.7407 10.7568 7.7407C10.7701 7.7407 10.7809 7.7724 10.7809 7.81114C10.7809 7.84994 10.7945 7.88613 10.8111 7.89167C10.8349 7.89961 10.8428 8.4268 10.8484 10.3939L10.8556 12.886H10.1309H9.40613V10.5791C9.40613 9.05725 9.39794 8.27212 9.38202 8.27212C9.36876 8.27212 9.3579 8.25585 9.3579 8.23593C9.3579 8.216 9.34705 8.19966 9.33379 8.19966C9.32053 8.19966 9.30967 8.18235 9.30967 8.16119C9.30967 8.1401 9.28796 8.09511 9.26144 8.06132C9.23492 8.02754 9.21321 8.00846 9.21321 8.01894C9.21321 8.02942 9.19293 8.01458 9.16817 7.986C9.1434 7.95736 9.10655 7.93398 9.08633 7.93398C9.06612 7.93398 9.04363 7.91849 9.03635 7.89954C9.02374 7.8666 8.95445 7.82937 8.78512 7.76478L8.70673 7.73484V7.01305V6.29133H8.7911C8.83758 6.29133 8.87554 6.30221 8.87554 6.31549ZM4.70299 7.72865C4.70299 8.56476 4.71099 8.94853 4.72834 8.94853C4.74225 8.94853 4.8235 8.8779 4.90891 8.79151C4.99426 8.70518 5.08058 8.63448 5.10066 8.63448C5.12075 8.63448 5.13713 8.62621 5.13713 8.61606C5.13713 8.5936 5.3162 8.51372 5.36645 8.51372C5.38627 8.51372 5.40246 8.50284 5.40246 8.48956C5.40246 8.47628 5.44042 8.46541 5.48689 8.46541C5.5333 8.46541 5.57126 8.45454 5.57126 8.44126C5.57126 8.42798 5.60929 8.4171 5.6557 8.4171C5.70211 8.4171 5.74013 8.40623 5.74013 8.39295C5.74013 8.37798 5.86877 8.3688 6.07774 8.3688C6.28678 8.3688 6.41542 8.37798 6.41542 8.39295C6.41542 8.40623 6.45344 8.4171 6.49985 8.4171C6.54626 8.4171 6.58429 8.42798 6.58429 8.44126C6.58429 8.45454 6.6162 8.46541 6.6552 8.46541C6.6942 8.46541 6.73223 8.47531 6.73977 8.48748C6.74724 8.49959 6.79671 8.51684 6.84968 8.52582C6.90272 8.53481 6.94608 8.55206 6.94608 8.56417C6.94608 8.57628 6.96779 8.58617 6.99431 8.58617C7.02083 8.58617 7.04254 8.59705 7.04254 8.61033C7.04254 8.62361 7.05879 8.63448 7.07868 8.63448C7.09863 8.63448 7.11488 8.64535 7.11488 8.65863C7.11488 8.67191 7.13659 8.68279 7.16311 8.68279C7.18963 8.68279 7.21134 8.69294 7.21134 8.70538C7.21134 8.71774 7.23448 8.73519 7.26269 8.74418C7.31976 8.76234 7.64548 9.08075 7.64548 9.11838C7.64548 9.13147 7.67882 9.17717 7.71951 9.21981C7.7602 9.26245 7.79959 9.32762 7.80694 9.36453C7.81435 9.40144 7.8278 9.43165 7.83697 9.43165C7.84607 9.43165 7.86849 9.46974 7.88669 9.51622C7.90489 9.5627 7.92862 9.60079 7.93941 9.60079C7.9502 9.60079 7.95904 9.6334 7.95904 9.67324C7.95904 9.71309 7.96866 9.7457 7.98042 9.7457C8.00467 9.7457 8.03457 9.87011 8.03392 9.96835C8.03366 10.0045 8.04386 10.0404 8.05654 10.0483C8.06921 10.0562 8.07961 10.1163 8.07961 10.1819C8.07961 10.2476 8.09047 10.3013 8.10373 10.3013C8.11894 10.3013 8.12784 10.4583 8.12784 10.7241C8.12784 10.9623 8.11829 11.1468 8.10587 11.1468C8.09378 11.1468 8.07838 11.2093 8.07155 11.2857C8.05056 11.5216 8.00818 11.7266 7.98042 11.7266C7.96866 11.7266 7.95904 11.7474 7.95904 11.7728C7.95904 11.7983 7.95052 11.8228 7.94006 11.8272C7.92959 11.8316 7.89118 11.895 7.85465 11.9681C7.81812 12.0412 7.77515 12.1218 7.7591 12.1472C7.71243 12.2213 7.40654 12.5237 7.37833 12.5237C7.34271 12.5237 7.28271 12.5871 7.30091 12.6054C7.30917 12.6136 7.29311 12.6203 7.26536 12.6203C7.23754 12.6203 7.19854 12.6366 7.17865 12.6565C7.15869 12.6765 7.12541 12.6928 7.10455 12.6928C7.08368 12.6928 7.06665 12.7037 7.06665 12.717C7.06665 12.7302 7.05034 12.7411 7.03045 12.7411C7.01056 12.7411 6.99431 12.752 6.99431 12.7653C6.99431 12.7785 6.9726 12.7894 6.94608 12.7894C6.91949 12.7894 6.89778 12.8003 6.89778 12.8136C6.89778 12.8268 6.87068 12.8377 6.83753 12.8377C6.80438 12.8377 6.77721 12.8474 6.77721 12.8591C6.77721 12.8709 6.71754 12.888 6.64454 12.8971C6.57161 12.9062 6.51194 12.9238 6.51194 12.9361C6.51194 12.9485 6.46371 12.9585 6.40482 12.9585C6.34587 12.9585 6.29101 12.9694 6.28275 12.9827C6.27424 12.9965 6.15035 13.0069 5.99337 13.0069C5.83633 13.0069 5.71244 12.9965 5.70393 12.9827C5.69574 12.9694 5.65167 12.9585 5.60604 12.9585C5.56041 12.9585 5.52303 12.9489 5.52303 12.9371C5.52303 12.9253 5.47422 12.9084 5.41448 12.8994C5.35481 12.8904 5.306 12.8729 5.306 12.8604C5.306 12.8479 5.28429 12.8377 5.25777 12.8377C5.23118 12.8377 5.20947 12.8268 5.20947 12.8136C5.20947 12.8003 5.19322 12.7894 5.17333 12.7894C5.15344 12.7894 5.13713 12.7785 5.13713 12.7653C5.13713 12.752 5.12036 12.7411 5.09988 12.7411C5.07934 12.7411 5.03547 12.714 5.00232 12.6807C4.9691 12.6475 4.93056 12.6203 4.91658 12.6203C4.90261 12.6203 4.86075 12.5877 4.82363 12.5479C4.72054 12.4373 4.70299 12.4531 4.70299 12.6565V12.8377H3.94327H3.18355V9.67324V6.50871H3.94327H4.70299V7.72865ZM20.1149 8.34465C20.1149 8.35825 20.1832 8.3688 20.2717 8.3688C20.3601 8.3688 20.4284 8.37928 20.4284 8.39295C20.4284 8.40623 20.4549 8.4171 20.4873 8.4171C20.5197 8.4171 20.5528 8.42798 20.5611 8.44126C20.5693 8.45454 20.6024 8.46541 20.6349 8.46541C20.6672 8.46541 20.6937 8.47505 20.6937 8.48689C20.6937 8.49868 20.7293 8.51502 20.7729 8.52322C20.8164 8.53142 20.8676 8.55981 20.8868 8.5863C20.9059 8.6128 20.9344 8.63448 20.9502 8.63448C20.966 8.63448 21.0502 8.70518 21.1372 8.79151C21.3433 8.99586 21.3449 8.99521 21.3449 8.707V8.46541H22.0805H22.8161V10.8931C22.8161 12.4955 22.808 13.3209 22.792 13.3209C22.7788 13.3209 22.7679 13.3807 22.7679 13.4537C22.7679 13.5268 22.7571 13.5866 22.7438 13.5866C22.7305 13.5866 22.7197 13.6247 22.7197 13.6712C22.7197 13.7176 22.7088 13.7557 22.6956 13.7557C22.6823 13.7557 22.6715 13.7883 22.6715 13.8282C22.6715 13.868 22.6619 13.9006 22.6501 13.9006C22.6289 13.9006 22.5954 13.977 22.5866 14.0456C22.5784 14.1092 22.5434 14.1773 22.4983 14.2175C22.4741 14.239 22.4544 14.2743 22.4544 14.296C22.4544 14.3177 22.4436 14.3354 22.4302 14.3354C22.417 14.3354 22.4061 14.3512 22.4061 14.3705C22.4061 14.3898 22.3682 14.4425 22.3218 14.4877C22.2753 14.5328 22.2373 14.5877 22.2373 14.6097C22.2373 14.6315 22.227 14.6495 22.2143 14.6495C22.2016 14.6495 22.1641 14.6766 22.131 14.7099C22.0978 14.7431 22.0637 14.7703 22.0551 14.7703C22.0466 14.7703 22.0092 14.8029 21.972 14.8427C21.9348 14.8826 21.8867 14.9152 21.8651 14.9152C21.8435 14.9152 21.8196 14.9315 21.8119 14.9514C21.8043 14.9714 21.7775 14.9876 21.7524 14.9876C21.7273 14.9876 21.7067 14.9985 21.7067 15.0119C21.7067 15.0251 21.685 15.036 21.6585 15.036C21.6319 15.036 21.6103 15.0469 21.6103 15.0602C21.6103 15.0734 21.5831 15.0843 21.5499 15.0843C21.5168 15.0843 21.4896 15.0952 21.4896 15.1085C21.4896 15.1217 21.4571 15.1326 21.4173 15.1326C21.3775 15.1326 21.3449 15.1423 21.3449 15.154C21.3449 15.1814 21.2208 15.2058 21.0736 15.2075C21.0106 15.2082 20.959 15.2188 20.959 15.2311C20.959 15.244 20.7462 15.2534 20.4526 15.2534H19.9461V14.577V13.9006H20.2479C20.5292 13.9006 20.7419 13.8669 20.7419 13.8223C20.7419 13.8122 20.7582 13.804 20.7781 13.804C20.798 13.804 20.8143 13.7932 20.8143 13.7799C20.8143 13.7666 20.8317 13.7557 20.8529 13.7557C20.8964 13.7557 21.0314 13.6208 21.0314 13.5773C21.0314 13.5617 21.0531 13.5333 21.0796 13.5141C21.1061 13.495 21.1278 13.46 21.1278 13.4363C21.1278 13.4127 21.1387 13.3934 21.152 13.3934C21.1653 13.3934 21.1761 13.377 21.1761 13.3571C21.1761 13.3372 21.1869 13.3209 21.2003 13.3209C21.2135 13.3209 21.2244 13.2891 21.2244 13.2504C21.2244 13.2117 21.2368 13.1758 21.2521 13.1707C21.3015 13.1542 21.313 12.4271 21.2638 12.4271C21.2421 12.4271 21.2244 12.4437 21.2244 12.464C21.2244 12.5094 20.9898 12.7411 20.9439 12.7411C20.9257 12.7411 20.9108 12.752 20.9108 12.7653C20.9108 12.7785 20.8891 12.7894 20.8626 12.7894C20.8361 12.7894 20.8143 12.8003 20.8143 12.8136C20.8143 12.8268 20.7989 12.8377 20.7802 12.8377C20.7614 12.8377 20.7423 12.8488 20.7378 12.8623C20.7333 12.8759 20.6727 12.8937 20.6032 12.9019C20.5335 12.9102 20.4767 12.9263 20.4767 12.9377C20.4767 12.9492 20.4278 12.9585 20.3681 12.9585C20.3085 12.9585 20.2596 12.9694 20.2596 12.9827C20.2596 12.9977 20.1229 13.0069 19.8978 13.0069C19.6727 13.0069 19.5361 12.9977 19.5361 12.9827C19.5361 12.9694 19.498 12.9585 19.4516 12.9585C19.4052 12.9585 19.3672 12.9485 19.3672 12.9361C19.3672 12.9238 19.3075 12.9062 19.2345 12.8971C19.1616 12.888 19.1019 12.8709 19.1019 12.8591C19.1019 12.8474 19.0802 12.8377 19.0536 12.8377C19.0271 12.8377 19.0054 12.8268 19.0054 12.8136C19.0054 12.8003 18.9891 12.7894 18.9693 12.7894C18.9494 12.7894 18.9331 12.7785 18.9331 12.7653C18.9331 12.752 18.9113 12.7411 18.8848 12.7411C18.8583 12.7411 18.8366 12.7302 18.8366 12.717C18.8366 12.7037 18.816 12.6928 18.791 12.6928C18.7658 12.6928 18.739 12.6765 18.7314 12.6565C18.7238 12.6366 18.7006 12.6203 18.68 12.6203C18.6329 12.6203 18.2336 12.2196 18.2336 12.1724C18.2336 12.1532 18.2119 12.124 18.1854 12.1075C18.1588 12.0909 18.1371 12.0581 18.1371 12.0347C18.1371 12.0114 18.1263 11.9922 18.113 11.9922C18.0998 11.9922 18.0889 11.9705 18.0889 11.9439C18.0889 11.9174 18.078 11.8956 18.0648 11.8956C18.0515 11.8956 18.0407 11.8685 18.0407 11.8352C18.0407 11.802 18.0314 11.7749 18.0199 11.7749C18.0086 11.7749 17.9853 11.696 17.9683 11.5997C17.9315 11.3908 17.9077 10.1322 17.9406 10.1322C17.9528 10.1322 17.9703 10.0616 17.9795 9.97519C17.9887 9.88886 18.0063 9.81816 18.0184 9.81816C18.0307 9.81816 18.0407 9.79101 18.0407 9.75781C18.0407 9.72454 18.0515 9.6974 18.0648 9.6974C18.078 9.6974 18.0889 9.67565 18.0889 9.64909C18.0889 9.62253 18.0998 9.60079 18.113 9.60079C18.1263 9.60079 18.1371 9.57904 18.1371 9.55248C18.1371 9.52585 18.1453 9.50411 18.1553 9.50404C18.1652 9.50398 18.1943 9.45235 18.2201 9.38934C18.2458 9.32625 18.2973 9.24585 18.3347 9.21063C18.3719 9.17541 18.4025 9.13381 18.4025 9.11825C18.4025 9.08622 18.6316 8.85192 18.6629 8.85192C18.674 8.85192 18.7068 8.82471 18.7356 8.79151C18.7644 8.7583 18.8074 8.73116 18.8311 8.73116C18.8548 8.73116 18.8898 8.70941 18.9089 8.68279C18.928 8.65622 18.9576 8.63448 18.9746 8.63448C18.9916 8.63448 19.0054 8.62361 19.0054 8.61033C19.0054 8.59705 19.0271 8.58617 19.0536 8.58617C19.0802 8.58617 19.1019 8.57654 19.1019 8.56476C19.1019 8.55297 19.1507 8.53605 19.2104 8.52706C19.2701 8.51808 19.319 8.50057 19.319 8.48807C19.319 8.47563 19.3563 8.46541 19.402 8.46541C19.4476 8.46541 19.4917 8.45454 19.4998 8.44126C19.508 8.42798 19.5521 8.4171 19.5977 8.4171C19.6434 8.4171 19.6807 8.40623 19.6807 8.39295C19.6807 8.37915 19.7531 8.3688 19.8496 8.3688C19.9461 8.3688 20.0184 8.35845 20.0184 8.34465C20.0184 8.33137 20.0401 8.32049 20.0667 8.32049C20.0932 8.32049 20.1149 8.33137 20.1149 8.34465ZM14.8811 8.43891C14.8811 8.45089 14.9327 8.46658 14.9957 8.47368C15.1843 8.4949 15.4117 8.54575 15.4117 8.56664C15.4117 8.57738 15.4388 8.58617 15.472 8.58617C15.5052 8.58617 15.5323 8.59705 15.5323 8.61033C15.5323 8.62361 15.554 8.63448 15.5805 8.63448C15.6071 8.63448 15.6288 8.64281 15.6288 8.65297C15.6288 8.67406 15.8066 8.75531 15.8528 8.75531C15.8697 8.75531 15.8991 8.77705 15.9182 8.80361C15.9373 8.83018 15.9615 8.85192 15.972 8.85192C15.9824 8.85192 16.0251 8.88454 16.0667 8.92438C16.1083 8.96422 16.1513 8.99684 16.1622 8.99684C16.192 8.99684 16.497 9.30711 16.497 9.33751C16.497 9.35203 16.5296 9.39441 16.5695 9.43165C16.6092 9.46889 16.6418 9.51134 16.6418 9.52592C16.6418 9.5405 16.6519 9.55248 16.6643 9.55248C16.6872 9.55248 16.7276 9.64629 16.7189 9.6793C16.7163 9.68926 16.723 9.6974 16.7338 9.6974C16.7446 9.6974 16.7683 9.73542 16.7865 9.78196C16.8047 9.82845 16.8284 9.86647 16.8392 9.86647C16.85 9.86647 16.8588 9.88821 16.8588 9.91477C16.8588 9.9414 16.8697 9.96314 16.8829 9.96314C16.8962 9.96314 16.9071 9.99029 16.9071 10.0235C16.9071 10.0567 16.9171 10.0839 16.9294 10.0839C16.9416 10.0839 16.9594 10.182 16.9688 10.3018C16.9781 10.4217 16.9952 10.5256 17.0067 10.5327C17.0339 10.5496 17.0342 10.8811 17.007 10.8811C16.9957 10.8811 16.9788 10.9816 16.9697 11.1045C16.9604 11.2274 16.9426 11.3316 16.93 11.336C16.9174 11.3404 16.9071 11.3703 16.9071 11.4024C16.9071 11.4346 16.8962 11.4608 16.8829 11.4608C16.8697 11.4608 16.8588 11.4816 16.8588 11.5071C16.8588 11.5326 16.8507 11.557 16.8408 11.5615C16.8093 11.5755 16.7135 11.7784 16.7276 11.8013C16.735 11.8133 16.7296 11.8232 16.7156 11.8232C16.7015 11.8232 16.69 11.8351 16.69 11.8497C16.69 11.8643 16.6575 11.9067 16.6177 11.9439C16.5778 11.9812 16.5453 12.0228 16.5453 12.0364C16.5453 12.0689 16.1394 12.4754 16.107 12.4754C16.0935 12.4754 16.0519 12.508 16.0147 12.5479C15.9775 12.5877 15.939 12.6203 15.929 12.6203C15.898 12.6203 15.6413 12.7504 15.6328 12.7704C15.6284 12.7809 15.6039 12.7894 15.5785 12.7894C15.5531 12.7894 15.5323 12.8003 15.5323 12.8136C15.5323 12.8268 15.51 12.8377 15.4827 12.8377C15.4554 12.8377 15.4392 12.8477 15.4467 12.86C15.4543 12.8722 15.3898 12.8897 15.3034 12.899C15.2171 12.9083 15.1464 12.9255 15.1464 12.9372C15.1464 12.9489 15.103 12.9585 15.05 12.9585C14.9969 12.9585 14.9535 12.9694 14.9535 12.9827C14.9535 12.9979 14.7927 13.0069 14.5194 13.0069C14.246 13.0069 14.0852 12.9979 14.0852 12.9827C14.0852 12.9694 14.037 12.9585 13.9781 12.9585C13.9191 12.9585 13.8649 12.9486 13.8575 12.9366C13.8501 12.9246 13.7897 12.9072 13.7234 12.8981C13.6571 12.889 13.6028 12.8717 13.6028 12.8597C13.6028 12.8476 13.5703 12.8377 13.5304 12.8377C13.4907 12.8377 13.4581 12.8268 13.4581 12.8136C13.4581 12.8003 13.4419 12.7894 13.422 12.7894C13.402 12.7894 13.3858 12.7785 13.3858 12.7653C13.3858 12.752 13.364 12.7411 13.3375 12.7411C13.311 12.7411 13.2893 12.7302 13.2893 12.717C13.2893 12.7037 13.2676 12.6928 13.2411 12.6928C13.2145 12.6928 13.1928 12.6826 13.1928 12.6703C13.1928 12.6579 13.1684 12.64 13.1386 12.6306C13.1087 12.6211 13.0667 12.5933 13.0453 12.5686C13.0238 12.5439 12.9938 12.5237 12.9785 12.5237C12.9633 12.5237 12.904 12.4748 12.8468 12.415C12.7896 12.3552 12.7246 12.3063 12.7025 12.3063C12.6803 12.3063 12.6622 12.2887 12.6622 12.2672C12.6622 12.2456 12.6134 12.1812 12.5536 12.1239C12.494 12.0666 12.4451 12.0076 12.4451 11.9929C12.4451 11.9781 12.418 11.9367 12.3848 11.9008C12.3517 11.865 12.3245 11.8221 12.3245 11.8053C12.3245 11.7885 12.3136 11.7749 12.3004 11.7749C12.2871 11.7749 12.2763 11.7531 12.2763 11.7266C12.2763 11.7 12.2654 11.6783 12.2522 11.6783C12.2389 11.6783 12.228 11.6619 12.228 11.642C12.228 11.6221 12.2172 11.6057 12.2039 11.6057C12.1907 11.6057 12.1798 11.584 12.1798 11.5574C12.1798 11.5309 12.1702 11.5091 12.1585 11.5091C12.1467 11.5091 12.1297 11.4494 12.1205 11.3762C12.1114 11.3032 12.0939 11.2434 12.0816 11.2434C12.0693 11.2434 12.0592 11.1945 12.0592 11.1347C12.0592 11.0749 12.0484 11.026 12.0351 11.026C12.0046 11.026 12.0023 10.4651 12.0327 10.433C12.0445 10.4204 12.06 10.3665 12.0669 10.3134C12.0886 10.1477 12.137 9.96314 12.1589 9.96314C12.1704 9.96314 12.1798 9.93053 12.1798 9.89062C12.1798 9.85078 12.1907 9.81816 12.2039 9.81816C12.2172 9.81816 12.228 9.80189 12.228 9.78196C12.228 9.76198 12.2389 9.7457 12.2522 9.7457C12.2654 9.7457 12.2763 9.72396 12.2763 9.6974C12.2763 9.67084 12.2854 9.64909 12.2966 9.64909C12.3078 9.64909 12.3374 9.61101 12.3624 9.56452C12.3874 9.51804 12.4162 9.47996 12.4265 9.47996C12.4368 9.47996 12.4451 9.46362 12.4451 9.4437C12.4451 9.40008 12.8918 8.94853 12.9349 8.94853C12.9515 8.94853 12.9807 8.92679 12.9999 8.90023C13.019 8.87366 13.0484 8.85192 13.0652 8.85192C13.0821 8.85192 13.1094 8.83018 13.126 8.80361C13.1426 8.77705 13.1698 8.75531 13.1864 8.75531C13.2323 8.75531 13.4099 8.674 13.4099 8.65297C13.4099 8.64281 13.4316 8.63448 13.4581 8.63448C13.4846 8.63448 13.5063 8.62361 13.5063 8.61033C13.5063 8.59705 13.5335 8.58617 13.5667 8.58617C13.5998 8.58617 13.6269 8.57654 13.6269 8.56482C13.6269 8.55304 13.6866 8.53598 13.7596 8.52687C13.8326 8.51769 13.8922 8.50017 13.8922 8.4878C13.8922 8.4755 13.9519 8.46541 14.0249 8.46541C14.0978 8.46541 14.1576 8.45454 14.1576 8.44126C14.1576 8.42622 14.2942 8.4171 14.5194 8.4171C14.7186 8.4171 14.8811 8.42687 14.8811 8.43891ZM14.3505 9.72155C14.3505 9.73483 14.3064 9.7457 14.2526 9.7457C14.1988 9.7457 14.1606 9.75514 14.1677 9.76673C14.1749 9.77832 14.1357 9.79381 14.0807 9.80124C13.999 9.81217 13.9574 9.83919 13.8527 9.94928C13.7821 10.0233 13.7155 10.0839 13.7045 10.0839C13.6827 10.0839 13.6028 10.2517 13.6028 10.2973C13.6028 10.3128 13.5919 10.3254 13.5787 10.3254C13.5654 10.3254 13.5546 10.3526 13.5546 10.3858C13.5546 10.4191 13.5437 10.4463 13.5304 10.4463C13.5158 10.4463 13.5063 10.5509 13.5063 10.7119C13.5063 10.873 13.5158 10.9777 13.5304 10.9777C13.5437 10.9777 13.5546 11.0048 13.5546 11.0381C13.5546 11.0713 13.5654 11.0985 13.5787 11.0985C13.5919 11.0985 13.6036 11.1175 13.6046 11.1408C13.6055 11.164 13.6272 11.2156 13.6526 11.2555C13.678 11.2953 13.7065 11.3442 13.716 11.3641C13.7364 11.407 13.8354 11.5091 13.8567 11.5091C13.8649 11.5091 13.8879 11.5255 13.9078 11.5454C13.9277 11.5653 13.9648 11.5816 13.9905 11.5816C14.016 11.5816 14.0369 11.5924 14.0369 11.6057C14.0369 11.6191 14.0586 11.6299 14.0852 11.6299C14.1117 11.6299 14.1335 11.6408 14.1335 11.6541C14.1335 11.6674 14.1606 11.6783 14.1937 11.6783C14.2269 11.6783 14.254 11.6891 14.254 11.7024C14.254 11.7169 14.3505 11.7266 14.4952 11.7266C14.6399 11.7266 14.7364 11.7169 14.7364 11.7024C14.7364 11.6891 14.7744 11.6783 14.8208 11.6783C14.8672 11.6783 14.9053 11.6674 14.9053 11.6541C14.9053 11.6408 14.9269 11.6299 14.9535 11.6299C14.98 11.6299 15.0017 11.6191 15.0017 11.6057C15.0017 11.5924 15.023 11.5816 15.049 11.5816C15.075 11.5816 15.1103 11.5644 15.1274 11.5434C15.1445 11.5224 15.2087 11.4544 15.2701 11.3924C15.3935 11.2678 15.4359 11.1992 15.4359 11.1242C15.4359 11.0968 15.4467 11.0743 15.46 11.0743C15.4732 11.0743 15.4841 11.0308 15.4841 10.9777C15.4841 10.9246 15.4949 10.8811 15.5082 10.8811C15.522 10.8811 15.5323 10.8086 15.5323 10.7119C15.5323 10.6153 15.522 10.5429 15.5082 10.5429C15.4949 10.5429 15.4841 10.4994 15.4841 10.4463C15.4841 10.3931 15.4738 10.3496 15.4611 10.3496C15.4484 10.3496 15.4309 10.3116 15.4222 10.2651C15.4135 10.2185 15.3967 10.1805 15.3849 10.1805C15.3731 10.1805 15.3635 10.1685 15.3635 10.1538C15.3635 10.1189 15.1115 9.86647 15.0767 9.86647C15.062 9.86647 15.05 9.85683 15.05 9.84505C15.05 9.8332 15.0119 9.8164 14.9655 9.80768C14.9191 9.79896 14.8811 9.78144 14.8811 9.76875C14.8811 9.75605 14.8377 9.7457 14.7846 9.7457C14.7316 9.7457 14.6882 9.73483 14.6882 9.72155C14.6882 9.70775 14.6158 9.6974 14.5194 9.6974C14.4228 9.6974 14.3505 9.70775 14.3505 9.72155ZM20.1631 9.76667C20.1631 9.77819 20.1172 9.79381 20.0611 9.80136C20.005 9.80892 19.9553 9.82662 19.9506 9.84075C19.9459 9.85494 19.9256 9.86647 19.9054 9.86647C19.8745 9.86647 19.8248 9.9121 19.708 10.0476C19.6966 10.0609 19.664 10.0878 19.6358 10.1073C19.6074 10.1269 19.5843 10.1622 19.5843 10.1859C19.5843 10.2095 19.5741 10.2288 19.5616 10.2288C19.5492 10.2288 19.5316 10.2778 19.5227 10.3375C19.5138 10.3973 19.4968 10.4463 19.485 10.4463C19.4733 10.4463 19.4636 10.5767 19.4636 10.7361C19.4636 10.8955 19.4731 11.026 19.4847 11.026C19.4963 11.026 19.5123 11.0671 19.5203 11.1175C19.5284 11.1678 19.5569 11.2326 19.5837 11.2614C19.6105 11.2902 19.6325 11.3201 19.6325 11.3277C19.6325 11.3463 19.7957 11.5091 19.8143 11.5091C19.8223 11.5091 19.8452 11.5255 19.8651 11.5454C19.885 11.5653 19.9222 11.5816 19.9478 11.5816C19.9734 11.5816 19.9943 11.5924 19.9943 11.6057C19.9943 11.6191 20.0214 11.6299 20.0546 11.6299C20.0878 11.6299 20.1149 11.6408 20.1149 11.6541C20.1149 11.6674 20.1745 11.6783 20.2475 11.6783C20.3205 11.6783 20.3802 11.6891 20.3802 11.7024C20.3802 11.7157 20.4019 11.7266 20.4284 11.7266C20.455 11.7266 20.4767 11.7157 20.4767 11.7024C20.4767 11.689 20.541 11.6783 20.6214 11.6783C20.7018 11.6783 20.7661 11.6675 20.7661 11.6541C20.7661 11.6408 20.7878 11.6299 20.8143 11.6299C20.8409 11.6299 20.8626 11.6204 20.8626 11.6088C20.8626 11.5971 20.896 11.5809 20.9368 11.5728C21.0296 11.5542 21.2703 11.3094 21.2892 11.2143C21.2966 11.1772 21.3122 11.1468 21.3238 11.1468C21.3355 11.1468 21.3449 11.125 21.3449 11.0985C21.3449 11.0719 21.3558 11.0501 21.3691 11.0501C21.3823 11.0501 21.3932 10.9958 21.3932 10.9294C21.3932 10.8629 21.404 10.8086 21.4173 10.8086C21.4305 10.8086 21.4414 10.7651 21.4414 10.7119C21.4414 10.6588 21.4305 10.6153 21.4173 10.6153C21.404 10.6153 21.3932 10.5664 21.3932 10.5066C21.3932 10.4468 21.3823 10.398 21.3691 10.398C21.3558 10.398 21.3449 10.3707 21.3449 10.3375C21.3449 10.3043 21.3341 10.2771 21.3208 10.2771C21.3076 10.2771 21.2967 10.2562 21.2967 10.2306C21.2967 10.2049 21.2804 10.1677 21.2605 10.1477C21.2406 10.1278 21.2244 10.1049 21.2244 10.0969C21.2244 10.0782 21.0617 9.91477 21.0433 9.91477C21.0356 9.91477 21.0058 9.89283 20.977 9.86595C20.9482 9.83906 20.8836 9.81054 20.8333 9.80247C20.7831 9.7944 20.7419 9.77838 20.7419 9.7668C20.7419 9.75521 20.6117 9.7457 20.4526 9.7457C20.2934 9.7457 20.1631 9.75514 20.1631 9.76667ZM5.44464 9.81022C5.39492 9.81621 5.35423 9.83131 5.35423 9.84381C5.35423 9.85625 5.32706 9.86647 5.29391 9.86647C5.26076 9.86647 5.23359 9.87734 5.23359 9.89062C5.23359 9.9039 5.21701 9.91477 5.19667 9.91477C5.14831 9.91477 4.87186 10.1913 4.87186 10.2397C4.87186 10.2603 4.86101 10.2771 4.84775 10.2771C4.83442 10.2771 4.82363 10.2935 4.82363 10.3134C4.82363 10.3333 4.81278 10.3496 4.79945 10.3496C4.78619 10.3496 4.77534 10.3822 4.77534 10.4221C4.77534 10.462 4.76637 10.4946 4.75538 10.4946C4.73289 10.4946 4.74037 10.9477 4.76487 11.0682C4.77365 11.1115 4.79048 11.1468 4.80225 11.1468C4.81395 11.1468 4.82363 11.1661 4.82363 11.1898C4.82363 11.2134 4.84528 11.2484 4.87186 11.2676C4.89838 11.2867 4.92009 11.3111 4.92009 11.3219C4.92009 11.3499 5.06842 11.5091 5.09449 11.5091C5.10658 11.5091 5.13277 11.5255 5.15266 11.5454C5.17255 11.5653 5.21519 11.5816 5.24743 11.5816C5.27961 11.5816 5.306 11.5924 5.306 11.6057C5.306 11.6191 5.33856 11.6299 5.37834 11.6299C5.41812 11.6299 5.45069 11.6408 5.45069 11.6541C5.45069 11.6686 5.54715 11.6783 5.6919 11.6783C5.83659 11.6783 5.93305 11.6686 5.93305 11.6541C5.93305 11.6408 5.96022 11.6299 5.99337 11.6299C6.02652 11.6299 6.05363 11.6204 6.05363 11.6088C6.05363 11.5971 6.08554 11.5813 6.12454 11.5734C6.18896 11.5605 6.46365 11.3241 6.46365 11.2816C6.46365 11.272 6.47996 11.2478 6.49985 11.2279C6.51974 11.208 6.53606 11.1652 6.53606 11.133C6.53606 11.1007 6.54691 11.0743 6.56017 11.0743C6.57343 11.0743 6.58429 11.0199 6.58429 10.9535C6.58429 10.8871 6.59514 10.8328 6.6084 10.8328C6.62166 10.8328 6.63252 10.7947 6.63252 10.7482C6.63252 10.7017 6.62166 10.6636 6.6084 10.6636C6.59514 10.6636 6.58429 10.6039 6.58429 10.5308C6.58429 10.4577 6.57428 10.398 6.56206 10.398C6.54984 10.398 6.533 10.3668 6.52468 10.3288C6.51636 10.2907 6.48835 10.2368 6.46248 10.209C6.43661 10.1812 6.41542 10.149 6.41542 10.1376C6.41542 10.1131 6.30297 10.0114 6.27586 10.0114C6.26566 10.0114 6.24161 9.98971 6.2225 9.96314C6.20339 9.93652 6.16842 9.91477 6.14482 9.91477C6.12123 9.91477 6.10192 9.9039 6.10192 9.89062C6.10192 9.87734 6.08112 9.86647 6.05564 9.86647C6.03023 9.86647 6.00585 9.85638 6.00137 9.84407C5.99227 9.81862 5.58199 9.79362 5.44464 9.81022Z" fill="#3EAF0E"/>
</g>
</g>
<defs>
<clipPath id="clip0_47_217">
<rect width="26" height="24.1429" fill="white" transform="translate(0 0.928558)"/>
</clipPath>
</defs>
</svg>
