<svg width="26" height="26" viewBox="0 0 26 26" fill="none" xmlns="http://www.w3.org/2000/svg">
<g id="Instagram_color 1" clip-path="url(#clip0_47_200)">
<g id="Symbol">
<g id="Group">
<path id="Vector" d="M5.19238 1.63281C4.40137 1.94043 3.73242 2.35059 3.06348 3.01953C2.39453 3.68359 1.98438 4.35742 1.67676 5.14355C1.37891 5.90527 1.17871 6.7793 1.12012 8.05859C1.06152 9.33789 1.04688 9.74805 1.04688 13.0098C1.04688 16.2715 1.06152 16.6816 1.12012 17.9609C1.17871 19.2402 1.38379 20.1143 1.67676 20.876C1.98438 21.667 2.39453 22.3359 3.06348 23.0049C3.73242 23.6738 4.40137 24.084 5.19238 24.3916C5.9541 24.6895 6.82813 24.8897 8.10742 24.9482C9.38672 25.0068 9.79688 25.0215 13.0586 25.0215C16.3203 25.0215 16.7305 25.0068 18.0098 24.9482C19.2891 24.8897 20.1631 24.6846 20.9248 24.3916C21.7158 24.084 22.3848 23.6738 23.0537 23.0049C23.7227 22.3359 24.1328 21.667 24.4404 20.876C24.7383 20.1143 24.9385 19.2402 24.9971 17.9609C25.0557 16.6816 25.0703 16.2715 25.0703 13.0098C25.0703 9.74805 25.0557 9.33789 24.9971 8.05859C24.9385 6.7793 24.7334 5.90527 24.4404 5.14355C24.1328 4.35742 23.7227 3.68359 23.0586 3.01953C22.3896 2.35059 21.7207 1.94043 20.9297 1.63281C20.168 1.33496 19.2939 1.13477 18.0146 1.07617C16.7354 1.01758 16.3252 1.00293 13.0635 1.00293C9.80176 1.00293 9.3916 1.01758 8.1123 1.07617C6.82812 1.12988 5.9541 1.33496 5.19238 1.63281ZM17.9121 3.23438C19.084 3.28809 19.7187 3.4834 20.1436 3.64941C20.7051 3.86914 21.1055 4.12793 21.5254 4.54785C21.9453 4.96777 22.2041 5.36816 22.4238 5.92969C22.5898 6.35449 22.7852 6.98926 22.8389 8.16113C22.8975 9.42578 22.9072 9.80664 22.9072 13.0146C22.9072 16.2227 22.8926 16.6035 22.8389 17.8682C22.7852 19.04 22.5898 19.6748 22.4238 20.0996C22.2041 20.6611 21.9453 21.0615 21.5254 21.4814C21.1055 21.9014 20.7051 22.1602 20.1436 22.3799C19.7187 22.5459 19.084 22.7412 17.9121 22.7949C16.6475 22.8535 16.2666 22.8633 13.0586 22.8633C9.85059 22.8633 9.46973 22.8486 8.20508 22.7949C7.0332 22.7412 6.39844 22.5459 5.97363 22.3799C5.41211 22.1602 5.01172 21.9014 4.5918 21.4814C4.17188 21.0615 3.91309 20.6611 3.69336 20.0996C3.52734 19.6748 3.33203 19.04 3.27832 17.8682C3.21973 16.6035 3.20996 16.2227 3.20996 13.0146C3.20996 9.80664 3.22461 9.42578 3.27832 8.16113C3.33203 6.98926 3.52734 6.35449 3.69336 5.92969C3.91309 5.36816 4.17188 4.96777 4.5918 4.54785C5.01172 4.12793 5.41211 3.86914 5.97363 3.64941C6.39844 3.4834 7.0332 3.28809 8.20508 3.23438C9.46973 3.17578 9.85059 3.16602 13.0586 3.16602C16.2666 3.16602 16.6475 3.17578 17.9121 3.23438Z" fill="url(#paint0_radial_47_200)"/>
<path id="Vector_2" d="M6.8916 13.0146C6.8916 16.4229 9.65527 19.1816 13.0586 19.1816C16.4619 19.1816 19.2256 16.418 19.2256 13.0146C19.2256 9.61133 16.4668 6.84766 13.0586 6.84766C9.65039 6.84766 6.8916 9.60644 6.8916 13.0146ZM17.0625 13.0146C17.0625 15.2266 15.2705 17.0186 13.0586 17.0186C10.8467 17.0186 9.05469 15.2266 9.05469 13.0146C9.05469 10.8027 10.8467 9.01074 13.0586 9.01074C15.2705 9.01074 17.0625 10.8027 17.0625 13.0146Z" fill="url(#paint1_radial_47_200)"/>
<path id="Vector_3" d="M19.4746 8.04395C20.2701 8.04395 20.915 7.39904 20.915 6.60352C20.915 5.80799 20.2701 5.16309 19.4746 5.16309C18.6791 5.16309 18.0342 5.80799 18.0342 6.60352C18.0342 7.39904 18.6791 8.04395 19.4746 8.04395Z" fill="#654C9F"/>
</g>
</g>
</g>
<defs>
<radialGradient id="paint0_radial_47_200" cx="0" cy="0" r="1" gradientUnits="userSpaceOnUse" gradientTransform="translate(1.48398 22.8225) rotate(-3.00009) scale(34.7321 29.522)">
<stop stop-color="#FED576"/>
<stop offset="0.2634" stop-color="#F47133"/>
<stop offset="0.6091" stop-color="#BC3081"/>
<stop offset="1" stop-color="#4C63D2"/>
</radialGradient>
<radialGradient id="paint1_radial_47_200" cx="0" cy="0" r="1" gradientUnits="userSpaceOnUse" gradientTransform="translate(7.1153 18.0506) rotate(-3.00009) scale(17.8354 15.1599)">
<stop stop-color="#FED576"/>
<stop offset="0.2634" stop-color="#F47133"/>
<stop offset="0.6091" stop-color="#BC3081"/>
<stop offset="1" stop-color="#4C63D2"/>
</radialGradient>
<clipPath id="clip0_47_200">
<rect width="25" height="25" fill="white" transform="translate(0.5 0.5)"/>
</clipPath>
</defs>
</svg>
