<svg width="14" height="14" viewBox="0 0 14 14" fill="none" xmlns="http://www.w3.org/2000/svg">
<g id="Group 14">
<path id="Rectangle 46" d="M6.5 1H3C1.89543 1 1 1.89543 1 3V11C1 12.1046 1.89543 13 3 13H10.7157C11.8203 13 12.7157 12.1046 12.7157 11V7.5" stroke="#333333" stroke-linecap="round"/>
<path id="Arrow 1" d="M7.68049 5.73342C7.48759 5.93101 7.48759 6.25136 7.68049 6.44895C7.8734 6.64654 8.18617 6.64654 8.37908 6.44895L7.68049 5.73342ZM13.4943 1.00002C13.4943 0.720585 13.2732 0.49406 13.0003 0.49406L8.55461 0.49406C8.28179 0.49406 8.06064 0.720585 8.06064 1.00002C8.06064 1.27945 8.28179 1.50597 8.55461 1.50597L12.5064 1.50597V5.55363C12.5064 5.83306 12.7275 6.05959 13.0003 6.05959C13.2732 6.05959 13.4943 5.83306 13.4943 5.55363V1.00002ZM8.37908 6.44895L13.3496 1.35778L12.6511 0.642252L7.68049 5.73342L8.37908 6.44895Z" fill="#333333"/>
</g>
</svg>
